<svg xmlns="http://www.w3.org/2000/svg" xmlns:xlink="http://www.w3.org/1999/xlink" xml:space="preserve" version="1.1" style="shape-rendering:geometricPrecision;text-rendering:geometricPrecision;image-rendering:optimizeQuality;" viewBox="0 0 42.83 53.537499999999994" x="0px" y="0px" fill-rule="evenodd" clip-rule="evenodd"><defs><style type="text/css">
   
    .fil0 {fill:black;fill-rule:nonzero}
   
  </style></defs><g><path class="fil0" d="M4.71 25.29l-4.3 -3.1c-0.55,-0.4 -0.54,-1.21 0.01,-1.59l4.24 -2.98c1.44,-6.55 6.56,-11.7 13.12,-13.12l2.87 -4.08c0.4,-0.57 1.24,-0.55 1.61,0.02l2.86 4.08c6.61,1.47 11.74,6.68 13.14,13.31 0.02,0.09 3.53,2.39 4.16,2.83 0.56,0.39 0.55,1.21 0,1.6l-4.21 2.95c-1.47,6.5 -6.55,11.61 -13.07,13.03l-2.94 4.2c-0.4,0.57 -1.24,0.55 -1.61,-0.02l-2.96 -4.22c-6.38,-1.48 -11.38,-6.37 -12.91,-12.9zm21.98 -7.84l-2.75 5.94c-0.1,0.26 -0.3,0.46 -0.56,0.56l-5.94 2.75c-0.83,0.38 -1.67,-0.49 -1.3,-1.3l2.78 -5.99c0.1,-0.21 0.27,-0.38 0.48,-0.48l5.99 -2.78c0.81,-0.37 1.68,0.47 1.3,1.3zm-6.17 3.64l-1.48 2.71 2.71 -1.48 -1.23 -1.23zm9.04 -6.42l-1.21 1.21c-0.91,0.91 -2.3,-0.47 -1.39,-1.39l1.21 -1.21c-1.6,-1.33 -3.59,-2.19 -5.77,-2.39l0 1.71c0,1.29 -1.96,1.29 -1.96,0l0 -1.71c-2.19,0.2 -4.18,1.07 -5.77,2.39l1.21 1.21c0.91,0.91 -0.47,2.3 -1.39,1.39l-1.21 -1.21c-1.33,1.6 -2.19,3.59 -2.39,5.77l1.71 0c1.29,0 1.29,1.96 0,1.96l-1.71 0c0.2,2.19 1.07,4.18 2.39,5.77l1.21 -1.21c0.91,-0.91 2.3,0.47 1.39,1.39l-1.21 1.21c1.6,1.33 3.59,2.19 5.77,2.39l0 -1.71c0,-1.29 1.96,-1.29 1.96,0l0 1.71c2.19,-0.2 4.18,-1.07 5.77,-2.39l-1.21 -1.21c-0.91,-0.91 0.47,-2.3 1.39,-1.39l1.21 1.21c1.33,-1.6 2.19,-3.59 2.39,-5.77l-1.71 0c-1.29,0 -1.29,-1.96 0,-1.96l1.71 0c-0.2,-2.19 -1.07,-4.18 -2.39,-5.77zm5.55 13.49l-2.51 -1.04c-1.2,2.36 -3.13,4.29 -5.49,5.49l1.04 2.52c3.03,-1.48 5.48,-3.94 6.96,-6.97zm-2.51 -12.42l2.54 -1.05c-1.48,-3.04 -3.93,-5.52 -6.96,-7.02l-1.07 2.58c2.36,1.2 4.29,3.13 5.49,5.49zm-16.87 -5.49l-1.07 -2.59c-3.03,1.51 -5.47,3.99 -6.93,7.04l2.51 1.04c1.2,-2.36 3.13,-4.29 5.49,-5.49zm-5.49 16.87l-2.45 1.02c1.48,3.01 3.92,5.45 6.92,6.95l1.03 -2.47c-2.36,-1.2 -4.29,-3.13 -5.49,-5.49z"/></g><text x="0" y="57.83" fill="#000000" font-size="5px" font-weight="bold" font-family="'Helvetica Neue', Helvetica, Arial-Unicode, Arial, Sans-serif">Created by sam maulidna</text><text x="0" y="62.83" fill="#000000" font-size="5px" font-weight="bold" font-family="'Helvetica Neue', Helvetica, Arial-Unicode, Arial, Sans-serif">from the Noun Project</text></svg>